<?xml version="1.0" standalone="no"?>
<!DOCTYPE svg PUBLIC "-//W3C//DTD SVG 20010904//EN"
 "http://www.w3.org/TR/2001/REC-SVG-20010904/DTD/svg10.dtd">
<svg version="1.0" xmlns="http://www.w3.org/2000/svg"
 width="512.000000pt" height="512.000000pt" viewBox="0 0 512.000000 512.000000"
 preserveAspectRatio="xMidYMid meet">
<metadata>
Created by potrace 1.11, written by Peter Selinger 2001-2013
</metadata>
<g transform="translate(0.000000,512.000000) scale(0.100000,-0.100000)"
fill="#000000" stroke="none">
<path d="M2345 4450 c-27 -4 -42 -8 -32 -8 14 -2 17 -12 17 -50 l0 -48 188 -2
c103 -1 201 -3 217 -5 30 -2 30 -2 29 51 -1 46 1 52 20 53 11 1 -1 5 -29 9
-60 10 -340 10 -410 0z"/>
<path d="M2248 4433 c7 -3 16 -2 19 1 4 3 -2 6 -13 5 -11 0 -14 -3 -6 -6z"/>
<path d="M2848 4433 c7 -3 16 -2 19 1 4 3 -2 6 -13 5 -11 0 -14 -3 -6 -6z"/>
<path d="M2095 4406 c-289 -76 -545 -206 -760 -388 -110 -93 -211 -195 -193
-195 7 0 46 -21 86 -47 40 -27 75 -46 76 -44 102 145 186 234 315 331 135 101
367 207 519 237 l60 12 4 59 c2 35 -1 59 -7 59 -5 -1 -50 -12 -100 -24z"/>
<path d="M2890 4366 l0 -64 53 -12 c81 -19 244 -85 331 -135 167 -95 329 -240
419 -373 27 -40 53 -72 58 -72 15 0 199 120 199 130 0 12 -179 181 -247 233
-130 100 -312 200 -476 264 -76 29 -301 93 -328 93 -5 0 -9 -29 -9 -64z"/>
<path d="M980 3624 c-39 -59 -86 -137 -105 -174 l-34 -67 192 -108 c106 -60
250 -141 322 -182 l129 -73 355 0 c205 0 351 4 346 9 -11 9 -194 123 -458 285
-87 53 -163 93 -169 90 -7 -5 -8 -2 -3 6 6 10 4 12 -9 7 -9 -4 -14 -3 -11 2 6
11 -32 26 -60 22 -17 -1 -17 0 -5 8 9 7 10 11 3 11 -6 0 -15 -5 -18 -10 -4 -6
-12 -10 -18 -8 -7 1 -30 -4 -52 -10 -26 -8 -43 -8 -49 -2 -13 13 -56 13 -56 0
0 -5 -17 -10 -38 -10 l-39 0 8 58 c5 33 13 71 19 86 5 15 10 33 10 40 0 10
-105 81 -182 123 -4 2 -39 -45 -78 -103z"/>
<path d="M3920 3657 c-99 -62 -115 -76 -113 -97 1 -14 4 -54 7 -90 4 -44 3
-59 -3 -45 -6 12 -10 14 -10 6 -1 -11 -6 -10 -23 5 -12 10 -18 13 -14 6 10
-17 -18 -26 -43 -12 -24 12 -130 19 -137 9 -2 -4 -23 -17 -46 -29 -24 -12
-173 -104 -333 -204 l-290 -181 351 -3 350 -2 260 148 c370 213 374 215 374
225 0 31 -181 326 -205 334 -5 1 -62 -30 -125 -70z"/>
<path d="M2174 3523 c6 -10 -15 -14 -86 -15 -51 -1 -120 -3 -153 -4 -133 -4
-172 -4 -206 -1 -26 2 -35 -1 -32 -9 6 -16 32 -26 45 -17 7 3 8 1 4 -5 -4 -6
5 -19 21 -28 15 -10 57 -36 93 -59 96 -62 313 -200 329 -209 20 -12 12 327 -8
346 -10 10 -12 10 -7 1z m-424 -27 c0 -2 -7 -7 -16 -10 -8 -3 -12 -2 -9 4 6
10 25 14 25 6z"/>
<path d="M2890 3337 c0 -140 3 -177 13 -171 26 15 432 278 437 284 3 3 13 10
24 15 40 22 -2 39 -48 20 -12 -5 -17 -5 -13 2 4 6 -66 13 -203 19 l-210 9 0
-178z"/>
<path d="M1400 3460 c-8 -5 -10 -10 -5 -10 6 0 17 5 25 10 8 5 11 10 5 10 -5
0 -17 -5 -25 -10z"/>
<path d="M3678 3453 c7 -3 16 -2 19 1 4 3 -2 6 -13 5 -11 0 -14 -3 -6 -6z"/>
<path d="M2720 3433 c0 -11 -54 -23 -117 -26 -15 -1 -31 -6 -35 -12 -5 -6 -8
-5 -8 3 0 9 -16 12 -52 10 -29 -1 -69 2 -88 6 -19 4 -46 8 -60 9 l-25 2 -3
-262 -2 -263 -820 0 -820 0 -5 -22 c-31 -137 -31 -457 1 -610 l6 -28 814 0
814 0 0 -769 0 -768 61 -7 c79 -8 291 -7 347 2 l43 7 -1 768 0 767 817 0 c790
0 818 0 824 18 28 76 35 439 11 592 l-7 45 -822 3 c-453 1 -824 3 -825 5 -1 1
-5 118 -8 260 -3 141 -9 257 -14 256 -5 0 -13 5 -17 13 -6 9 -9 9 -9 1z"/>
<path d="M772 3218 c-11 -29 -29 -86 -40 -125 l-20 -73 256 0 c218 0 253 2
237 13 -18 12 -192 113 -357 206 l-56 32 -20 -53z"/>
<path d="M4095 3154 c-110 -64 -204 -120 -209 -125 -6 -5 90 -9 246 -9 l257 0
-19 68 c-30 104 -56 176 -66 179 -5 1 -99 -49 -209 -113z"/>
<path d="M4371 2156 c-16 -29 -73 -36 -306 -36 -159 0 -160 0 -130 -19 17 -10
101 -60 187 -111 l157 -93 -15 -36 c-30 -73 -26 -74 -211 31 -92 53 -219 125
-282 162 l-114 66 -353 -2 -353 -3 290 -179 c159 -98 358 -218 441 -266 192
-109 328 -198 328 -215 0 -7 -15 -29 -33 -49 l-33 -36 -48 26 c-45 24 -391
235 -716 437 -80 49 -176 109 -215 133 l-70 43 -5 -632 c-3 -348 -9 -638 -13
-644 -12 -18 11 -17 106 7 188 47 341 107 499 196 176 99 400 281 489 399 21
27 64 83 97 123 62 77 176 267 191 319 5 17 21 54 35 82 31 62 82 221 89 279
3 23 4 42 3 42 -2 0 -8 -11 -15 -24z"/>
<path d="M720 2117 c0 -29 51 -181 91 -272 88 -198 177 -346 263 -440 26 -27
53 -62 61 -76 21 -39 178 -184 286 -264 169 -126 349 -219 550 -283 73 -24
217 -62 232 -62 1 0 2 283 2 630 0 366 -4 630 -9 630 -9 0 -67 -36 -646 -400
-146 -92 -292 -182 -324 -200 l-59 -34 -34 39 c-18 21 -33 43 -33 49 0 13 188
137 360 237 149 86 679 416 700 436 12 11 -41 13 -332 13 l-346 0 -174 -102
c-285 -167 -412 -238 -428 -238 -18 0 -60 74 -51 89 4 6 90 60 191 121 102 60
192 114 200 119 10 7 -47 10 -166 10 -100 1 -215 4 -257 7 -67 6 -77 5 -77 -9z"/>
</g>
</svg>
